<svg width="50" height="50" viewBox="0 0 50 50" fill="none" xmlns="http://www.w3.org/2000/svg">
  <defs>
    <!-- Background gradient -->
    <linearGradient id="backgroundGradient" x1="0" y1="0" x2="50" y2="50" gradientUnits="userSpaceOnUse">
      <stop offset="0%" stop-color="#FF8A50"/>
      <stop offset="50%" stop-color="#FF6B35"/>
      <stop offset="100%" stop-color="#E55A2B"/>
    </linearGradient>

    <!-- Shadow filter -->
    <filter id="dropShadow" x="-50%" y="-50%" width="200%" height="200%">
      <feDropShadow dx="0" dy="1" stdDeviation="1" flood-color="#000000" flood-opacity="0.25"/>
    </filter>
  </defs>

  <!-- Background with rounded corners -->
  <rect width="50" height="50" rx="12" fill="url(#backgroundGradient)" filter="url(#dropShadow)"/>

  <!-- Car group centered -->
  <g transform="translate(0, -2) scale(1.1)" fill="white" stroke="white">
    <!-- Car body -->
    <path d="M8 30.5h34c1.1 0 2-.9 2-2v-2.5c0-1.2-.8-2.3-1.9-2.6l-6.1-1.4s-2.5-2-4-3.5c-.8-.8-1.9-1.3-3.1-1.3H12.5c-.9 0-1.7.4-2.2 1.1l-1.8 2.4c-.8.7-1.3 1.7-1.3 2.8v4c0 1.1.9 2 2 2h2.8z"
          fill="white"
          stroke="white"
          stroke-width="0.6"
          filter="url(#dropShadow)"/>

    <!-- Windshield -->
    <path d="M28.5 17.2l-9.8 0c-.5 0-.9.2-1.2.6l-1.5 2h10c.8 0 1.5.4 2 1l.5.7z"
          fill="white"
          opacity="0.9"/>

    <!-- Wheels -->
    <circle cx="15.5" cy="30.5" r="3.5" fill="white" stroke="white" stroke-width="0.5"/>
    <circle cx="33.5" cy="30.5" r="3.5" fill="white" stroke="white" stroke-width="0.5"/>

    <!-- Headlight -->
    <circle cx="41" cy="26" r="1.2" fill="white" stroke="white" stroke-width="0.3"/>

    <!-- Side detail line -->
    <path d="M12 25.5h24" stroke="white" stroke-width="0.8" stroke-linecap="round"/>

    <!-- Door handle -->
    <rect x="22" y="24" width="2" height="0.8" rx="0.4" fill="white"/>
  </g>
</svg>
