<svg xmlns="http://www.w3.org/2000/svg" viewBox="0 0 24 24" fill="none" stroke="#ff6b35" stroke-width="2" stroke-linecap="round" stroke-linejoin="round">
  <defs>
    <linearGradient id="carGradient" x1="0%" y1="0%" x2="100%" y2="100%">
      <stop offset="0%" style="stop-color:#ff6b35;stop-opacity:1" />
      <stop offset="100%" style="stop-color:#f7931e;stop-opacity:1" />
    </linearGradient>
  </defs>
  <path d="M19 17h2c.6 0 1-.4 1-1v-3c0-.9-.7-1.7-1.5-1.9C18.7 10.6 16 10 16 10s-1.3-1.4-2.2-2.3c-.5-.4-1.1-.7-1.8-.7H5c-.6 0-1.1.4-1.4.9L3 6c-.6.5-1 1.2-1 2v4c0 .6.4 1 1 1h2" fill="url(#carGradient)" stroke="url(#carGradient)"/>
  <circle cx="7" cy="17" r="2" fill="#333" stroke="#333"/>
  <circle cx="17" cy="17" r="2" fill="#333" stroke="#333"/>
  <path d="m9 17 3-3H5l3 3z" fill="#fff"/>
  <path d="m19 17-3-3h6l-3 3z" fill="#fff"/>
  <rect x="10" y="8" width="4" height="2" fill="#fff" rx="1"/>
</svg>